<svg id="Layer_1" data-name="Layer 1" xmlns="http://www.w3.org/2000/svg" viewBox="0 0 93.22 93.05"><defs><style>.cls-1{fill:#1e4872;stroke:#1e4872;}.cls-1,.cls-2,.cls-3{stroke-miterlimit:10;stroke-width:0.49px;fill-rule:evenodd;}.cls-2{fill:#009fe6;stroke:#009fe6;}.cls-3{fill:#08bdb7;stroke:#08bdb7;}</style></defs><path class="cls-1" d="M55.91,91.43A45.76,45.76,0,0,1,1.54,39.2a29.32,29.32,0,0,0,.82,6.35c6.49,22.83,27.3,36.9,51,33.59h0a6.27,6.27,0,0,1,2.53,12.29Z"/><path class="cls-2" d="M3.27,32.22a45.77,45.77,0,0,1,72.42-21,26.25,26.25,0,0,0-5.91-2.46c-22.69-5.17-45.25,5.34-54.6,27.37h0a6.27,6.27,0,1,1-11.91-4Z"/><path class="cls-3" d="M80.87,16.24a45.76,45.76,0,0,1-18.05,73.2,29.53,29.53,0,0,0,5.08-3.89c16.7-17,17.44-42.51,3.6-61h0a6.28,6.28,0,1,1,9.38-8.34Z"/></svg>