<svg id="Layer_1" data-name="Layer 1" xmlns="http://www.w3.org/2000/svg" viewBox="0 0 193 193"><defs><style>.cls-1{fill:#009fe6;}.cls-2{fill:#eceff1;}.cls-3{fill:#cfd8dc;}.cls-4{fill:#fff;}.cls-5{fill:#455a64;}</style></defs><circle class="cls-1" cx="96.58" cy="96.78" r="91.27"/><path class="cls-2" d="M77.27,139.05c-3.06,0-2.54-1.16-3.59-4.06l-9-29.61L133.92,64.3Z"/><path class="cls-3" d="M77.27,139.05c2.36,0,3.4-1.07,4.72-2.36l12.59-12.24L78.87,115Z"/><path class="cls-4" d="M78.87,115l38.06,28.11c4.34,2.4,7.47,1.16,8.55-4l15.49-73c1.59-6.36-2.42-9.24-6.58-7.36L43.44,93.79c-6.21,2.5-6.16,6-1.13,7.5l23.34,7.28,54-34.09c2.55-1.55,4.89-.72,3,1Z"/><path class="cls-5" d="M116.93,146.25a3.17,3.17,0,0,1-2-.71L78.66,115.82a3.14,3.14,0,0,1-.12-4.77l26.92-24.3a3.15,3.15,0,1,1,4.22,4.67L85.47,113.26l33.45,27.4a3.15,3.15,0,0,1-2,5.59Z"/><path class="cls-5" d="M120.75,147.42h0a11.18,11.18,0,0,1-5.35-1.56L94.72,129.23,84.12,139c-1.47,1.44-3.28,3.19-6.86,3.19-4.4,0-5.43-2.32-6.1-4.71-.12-.41-.25-.89-.45-1.43l-7.59-25-21.76-6.78c-5.12-1.58-5.81-4.72-5.86-6-.09-2.12,1-5.13,6.76-7.43L135.72,54.8a6.76,6.76,0,0,1,7.63,2,6.65,6.65,0,0,1,1.36,5.59L128.56,139.7C127.11,146.66,122.61,147.42,120.75,147.42ZM94.58,121.93a3.09,3.09,0,0,1,2,.7l22.35,18c2.89,1.38,3.14-.53,3.5-2.22l16.15-77.27-.4-.51L44.57,96.73a10.46,10.46,0,0,0-2.26,1.19,7.26,7.26,0,0,0,.92.35l23.36,7.29a3.18,3.18,0,0,1,2.07,2.09l8,26.42c.21.55.39,1.18.54,1.71l0,.12c.84,0,1.28-.23,2.44-1.37l12.76-11.78A3.18,3.18,0,0,1,94.58,121.93Z"/><path class="cls-5" d="M120,80.37a3.15,3.15,0,0,1-3.15,3.14h0a3.15,3.15,0,0,1-3.14-3.14h0a3.15,3.15,0,0,1,3.14-3.15h0A3.16,3.16,0,0,1,120,80.37Z"/></svg>